<svg version="1.1" id="Layer_1" xmlns="http://www.w3.org/2000/svg" xmlns:xlink="http://www.w3.org/1999/xlink" x="0px" y="0px"
	 width="100%" viewBox="0 0 962 727" enable-background="new 0 0 962 727" xml:space="preserve">
<path fill="#000000" opacity="1.000000" stroke="none" 
	d="
M649.000000,728.000000 
	C432.666718,728.000000 216.833466,728.000000 1.000145,728.000000 
	C1.000097,485.666809 1.000097,243.333603 1.000048,1.000307 
	C321.666443,1.000205 642.332886,1.000205 962.999512,1.000102 
	C962.999634,243.333023 962.999634,485.666046 962.999817,727.999512 
	C858.500000,728.000000 754.000000,728.000000 649.000000,728.000000 
M180.225067,250.068634 
	C180.214554,237.747818 180.204056,225.426987 180.833786,213.311798 
	C182.006226,214.633087 183.574722,215.769028 184.292633,217.303040 
	C198.807663,248.319016 213.206375,279.389374 227.699280,310.415741 
	C228.800751,312.773773 230.431641,314.884521 232.771408,317.277588 
	C240.919510,317.312134 249.068924,317.432739 257.214661,317.309937 
	C258.880798,317.284821 260.533173,316.346832 262.063812,315.091888 
	C261.529694,313.695374 261.088104,312.254822 260.447968,310.908752 
	C241.349442,270.747589 222.192795,230.613907 203.183502,190.410568 
	C201.525223,186.903412 199.381714,185.361191 195.542358,185.389450 
	C181.048553,185.496109 166.553223,185.390747 152.059189,185.480453 
	C150.257065,185.491592 148.459244,186.195847 146.659424,186.578934 
	C146.602203,187.173889 146.544968,187.768829 146.487747,188.363785 
	C148.889740,189.040390 151.253922,189.943970 153.700714,190.351593 
	C161.452637,191.643005 167.036713,195.975174 169.757416,203.090912 
	C172.113892,209.254044 174.009583,215.782181 174.810440,222.308334 
	C176.106384,232.868622 176.733475,243.552109 176.932190,254.196854 
	C177.286652,273.183960 177.054153,292.181519 177.237915,311.173065 
	C177.257919,313.241455 178.400040,315.298981 179.728210,316.787201 
	C179.841507,294.856232 179.954803,272.925262 180.225067,250.068634 
M748.387878,183.539902 
	C750.938904,183.735504 753.489929,183.931107 756.771362,184.244583 
	C757.510254,184.276169 758.249207,184.307755 759.501587,184.769485 
	C768.199097,187.521515 777.104980,189.750229 785.557556,193.117233 
	C820.062012,206.861725 830.311523,248.088486 806.415771,276.415405 
	C794.796326,290.189453 779.439636,298.879700 763.794983,307.105835 
	C757.715637,310.302429 751.552917,313.340454 745.428101,316.450684 
	C745.545044,316.781830 745.661987,317.112976 745.778931,317.444122 
	C746.512756,317.401123 747.246582,317.358154 748.920166,317.375641 
	C758.957031,317.327850 768.993835,317.280060 779.638123,317.322388 
	C785.479614,314.946136 791.527649,312.974243 797.123413,310.116730 
	C813.078613,301.969299 828.247009,292.834137 838.476562,277.279572 
	C854.240906,253.308868 851.511658,218.428818 831.718323,200.499542 
	C815.216980,185.552216 794.353577,181.339203 773.248962,179.042847 
	C761.400696,177.753632 749.302673,178.656097 737.320251,178.810211 
	C735.421631,178.834641 733.539307,180.125381 730.509644,181.015778 
	C729.788879,181.265961 729.068054,181.516129 728.329285,181.096237 
	C727.859680,180.300690 727.390015,179.505127 726.895020,178.666504 
	C725.448120,179.909821 724.228333,180.958008 722.189697,181.937851 
	C720.825256,181.983734 719.460876,182.029602 717.348511,181.864883 
	C715.033875,181.862823 712.696960,181.649734 710.407959,181.890915 
	C683.599670,184.715790 656.727234,185.974625 629.771851,185.421967 
	C626.283386,185.350433 622.784607,185.325562 619.304565,185.523788 
	C617.906433,185.603439 616.545837,186.343109 615.168152,186.782379 
	C615.180664,187.278046 615.193176,187.773712 615.205688,188.269363 
	C616.835571,188.784927 618.431458,189.547714 620.100647,189.776733 
	C632.841309,191.524689 639.408752,199.762573 641.614624,211.480453 
	C643.512329,221.561417 644.102600,231.886963 645.321106,242.098389 
	C645.651917,244.870712 646.164490,247.621384 646.537720,251.258255 
	C646.553406,271.391785 646.663025,291.526031 646.509399,311.658295 
	C646.476807,315.936401 647.774475,317.685303 652.190308,317.447296 
	C657.499329,317.161102 662.851990,317.127777 668.155518,317.463562 
	C672.918884,317.765137 674.518616,316.050232 674.498779,311.253357 
	C674.336731,272.151825 674.379944,233.049454 675.037231,193.699036 
	C690.269592,188.933289 705.672852,185.086105 721.753418,184.642288 
	C723.267517,184.600510 724.758423,183.719498 727.156921,183.274155 
	C734.046570,183.227997 740.936218,183.181839 748.387878,183.539902 
M467.447052,209.538437 
	C471.147858,203.847748 474.848694,198.157074 479.056091,192.319901 
	C479.370239,192.163223 479.684357,192.006531 480.812103,191.738937 
	C485.118866,190.308350 490.094757,190.747833 493.883148,187.295212 
	C492.115021,186.116974 490.454407,185.492920 488.791138,185.485733 
	C472.295868,185.414398 455.800018,185.483551 439.304688,185.421890 
	C434.771912,185.404938 432.333313,187.192825 432.709961,191.891266 
	C432.709961,191.891266 432.626923,191.906677 432.175659,192.370392 
	C429.512238,198.969376 426.672760,205.503769 424.223694,212.181366 
	C419.719910,224.461319 415.445892,236.825562 410.809418,249.610336 
	C402.391174,272.047791 393.972961,294.485291 385.554718,316.922760 
	C386.192566,317.214630 386.830383,317.506531 387.468231,317.798431 
	C388.199463,316.551025 389.118561,315.376160 389.632385,314.044861 
	C393.946594,302.867126 398.287384,291.697784 402.419006,280.452026 
	C406.200531,270.159180 409.731812,259.774384 413.810272,248.796295 
	C414.210449,247.867828 414.610596,246.939346 415.148254,245.597015 
	C415.148254,245.597015 415.235199,245.169678 415.654388,244.639465 
	C420.278320,232.419876 424.804291,220.161499 429.614075,208.015488 
	C430.507812,205.758514 432.543884,203.953934 433.944580,202.747040 
	C433.959381,203.830002 433.974152,204.912964 433.795746,206.788742 
	C433.670959,208.444778 433.438416,210.100754 433.437286,211.756882 
	C433.415436,243.858444 433.410675,275.960022 433.444580,308.061584 
	C433.446655,310.043030 433.797668,312.024048 433.909943,314.662476 
	C433.909851,315.103271 433.909729,315.544037 433.936432,316.511261 
	C435.682312,317.122498 437.410309,318.192017 439.177338,318.260925 
	C444.990234,318.487579 450.827881,318.135773 456.635651,318.420929 
	C461.559204,318.662720 463.446167,316.876007 463.376862,311.821198 
	C463.157898,295.856354 463.334534,279.886383 463.296326,263.918549 
	C463.278809,256.609955 463.116760,249.301712 463.122620,241.212112 
	C463.135925,240.162842 463.149231,239.113556 463.437927,237.379211 
	C464.649933,228.257278 465.861938,219.135361 467.012268,210.012634 
	C467.012268,210.012634 467.031921,210.071121 467.447052,209.538437 
M447.165314,349.558533 
	C446.788879,357.858887 446.306854,366.156860 446.117706,374.461487 
	C446.075653,376.307343 447.065521,378.176727 447.755219,380.723969 
	C448.444550,381.232147 449.133881,381.740326 449.823242,382.248505 
	C450.232025,381.112244 450.988373,379.978149 450.995636,378.839325 
	C451.065247,367.904633 451.008453,356.969147 450.700989,345.655273 
	C449.789703,345.738922 448.878448,345.822601 447.859009,346.669556 
	C447.768250,347.434631 447.677521,348.199707 447.165314,349.558533 
M514.115967,639.434509 
	C514.453552,639.312012 514.791199,639.189575 515.319092,638.137390 
	C515.319275,620.555603 515.319458,602.973755 515.669922,584.725159 
	C515.799622,583.906067 516.041504,583.087097 516.042908,582.267822 
	C516.138733,527.312317 516.220276,472.356781 516.260742,417.401215 
	C516.261658,416.159943 515.776978,414.918335 515.518799,413.676849 
	C514.185547,414.559113 513.783325,415.316589 513.784729,416.073334 
	C513.823608,437.382782 513.903381,458.692200 513.892700,480.935608 
	C513.841003,522.003296 513.773010,563.070923 513.747803,604.138611 
	C513.740662,615.771973 513.858215,627.405518 514.115967,639.434509 
M826.891541,376.545837 
	C826.339905,376.816071 825.788269,377.086304 824.434021,377.679535 
	C819.940125,377.815643 815.446167,377.951752 810.419006,377.676636 
	C809.202087,375.780426 807.985168,373.884216 806.958679,371.198914 
	C807.026184,363.811066 807.199951,356.421753 807.095886,349.036316 
	C807.065063,346.848114 806.840637,343.858643 802.986450,346.508118 
	C802.986450,346.508118 802.898071,346.911682 802.582214,347.558899 
	C801.692139,356.458618 800.197205,365.389435 804.164551,374.655579 
	C804.810120,375.769928 805.455627,376.884247 806.121765,378.496460 
	C807.985229,382.175140 810.992493,383.477661 815.833313,382.848663 
	C817.559509,382.824890 819.285706,382.801117 821.612000,382.985291 
	C828.658142,382.375946 832.466675,378.612823 832.852966,371.243927 
	C832.914917,370.174316 832.976868,369.104675 833.415649,367.423492 
	C833.333252,360.570526 833.250854,353.717560 833.069275,346.465790 
	C833.069275,346.465790 832.884644,346.098633 832.657471,345.755646 
	C831.895935,345.928619 831.134460,346.101624 830.123352,347.147247 
	C830.000916,355.033417 829.878540,362.919556 829.361816,371.314911 
	C828.700195,372.932037 828.038574,374.549194 826.891541,376.545837 
M662.380554,361.600464 
	C663.015503,360.548859 663.650513,359.497284 664.560364,358.104767 
	C664.667603,357.415222 664.774841,356.725708 664.979492,355.348846 
	C664.941895,354.888947 664.904236,354.429016 664.942566,353.408234 
	C663.293884,351.351379 661.645203,349.294556 659.469177,346.965210 
	C659.078186,346.912018 658.687256,346.858826 657.663940,346.481140 
	C651.724854,346.074280 645.788574,345.617371 639.845398,345.283508 
	C637.199036,345.134827 635.956177,346.463013 635.975281,349.219604 
	C636.044373,359.192200 636.055603,369.166016 635.969238,379.138306 
	C635.945312,381.903656 637.054565,383.088226 639.786438,383.047974 
	C645.602112,382.962219 651.439270,383.229675 657.225220,382.791504 
	C659.489929,382.619965 661.640625,380.943085 664.307739,379.531616 
	C664.952515,378.475189 665.597351,377.418793 666.609009,375.846283 
	C668.336548,371.781769 667.100464,368.514343 664.076782,365.558441 
	C663.097107,364.600739 662.582825,363.166992 662.380554,361.600464 
M328.270996,479.365784 
	C329.732086,475.307678 331.193146,471.249542 332.862640,466.581696 
	C332.892456,466.368988 332.922302,466.156281 333.253113,465.383240 
	C341.383392,448.371826 352.260925,416.737885 350.777710,412.579834 
	C349.599884,414.786163 348.524689,416.358978 347.873627,418.091217 
	C343.542114,429.615601 339.336548,441.187317 334.995026,452.707886 
	C334.300690,454.550415 333.129456,456.213257 331.398376,459.392029 
	C327.434906,451.618225 324.217926,445.308563 320.854401,438.281342 
	C317.545044,431.208038 314.126099,424.183075 310.974091,417.040344 
	C309.471741,413.635773 307.044434,412.397339 303.530762,412.435547 
	C298.045013,412.495239 292.557373,412.367920 287.071381,412.416138 
	C276.351105,412.510376 274.429718,411.228638 280.089478,422.683044 
	C287.005157,436.679352 293.633514,450.817627 300.613495,465.608643 
	C305.738251,476.411469 310.863007,487.214264 316.128662,498.589264 
	C316.211731,498.767242 316.294800,498.945221 316.543213,499.639771 
	C318.498688,503.070312 320.123688,501.861359 321.172607,499.107422 
	C323.380981,493.309387 325.367645,487.426880 327.775604,480.810791 
	C327.852509,480.542847 327.929413,480.274902 328.270996,479.365784 
M646.231567,461.310699 
	C645.901428,465.279175 645.769409,469.276184 645.203308,473.210693 
	C643.595459,484.384491 642.756653,495.789551 639.818481,506.616028 
	C637.093201,516.658142 629.486938,522.701782 618.455933,523.274963 
	C617.270935,523.336609 616.106323,523.790771 614.932251,524.062744 
	C614.895203,524.663452 614.858093,525.264099 614.821045,525.864746 
	C617.024231,526.206177 619.232422,526.873718 621.429871,526.839844 
	C650.953125,526.385437 680.360901,527.769409 709.764099,530.690857 
	C728.783142,532.580505 747.989685,533.793518 767.079102,533.453125 
	C790.201050,533.040771 812.103271,526.980286 831.653564,513.790649 
	C865.309143,491.084717 874.497559,450.211395 868.456116,417.617615 
	C867.804382,414.101440 866.005737,412.380219 862.364441,412.425964 
	C856.199646,412.503387 850.031494,412.513550 843.867493,412.400970 
	C839.719604,412.325226 838.521667,413.885956 838.905090,418.181488 
	C839.760620,427.765961 840.927246,437.489197 840.190613,447.018585 
	C837.796082,477.997284 823.696716,502.140350 795.279663,516.031982 
	C758.449036,534.036560 720.478516,531.816895 682.279358,520.478943 
	C676.719238,518.828674 674.845154,515.696899 674.895508,509.928589 
	C675.142639,481.599640 675.038574,453.267303 674.988525,424.936279 
	C674.966248,412.303009 676.574036,412.203064 662.562073,412.461395 
	C657.340027,412.557678 652.131348,413.383209 646.725403,414.817230 
	C646.679260,430.093231 646.633179,445.369263 646.231567,461.310699 
M402.385590,525.476746 
	C403.950531,526.096191 405.513306,527.249329 407.080688,527.255676 
	C434.394836,527.365173 461.709625,527.353210 489.024017,527.285950 
	C490.644531,527.281921 492.263306,526.588318 493.882904,526.215576 
	C493.928040,525.724060 493.973175,525.232544 494.018311,524.741028 
	C492.661285,524.139099 491.345886,523.145691 489.940735,522.996338 
	C476.656219,521.583923 469.600586,513.441833 467.598328,501.070129 
	C465.610748,488.788879 464.219849,476.345856 463.617157,463.922821 
	C462.915680,449.464508 463.374939,434.950714 463.290253,420.461273 
	C463.245819,412.862549 462.844940,412.471893 455.459839,412.417084 
	C450.630096,412.381226 445.799652,412.382874 440.969849,412.415588 
	C433.763153,412.464417 433.580261,412.777008 433.395844,420.127197 
	C432.865753,441.258270 432.445465,462.395721 431.540588,483.511719 
	C431.257812,490.111298 430.131409,496.803375 428.393768,503.181335 
	C425.894470,512.354797 421.436096,520.130493 410.579437,521.735840 
	C407.775360,522.150452 405.158173,523.829224 402.385590,525.476746 
M176.645065,450.499908 
	C175.834503,465.441467 175.689255,480.458038 174.015411,495.302246 
	C172.516144,508.598267 166.776993,521.414856 149.214371,523.242004 
	C148.090759,523.358948 147.044540,524.219788 145.962326,524.734497 
	C145.978149,525.179382 145.993958,525.624268 146.009781,526.069153 
	C147.608276,526.487671 149.205826,527.266663 150.805405,527.270874 
	C178.101624,527.342773 205.398178,527.343323 232.694336,527.256531 
	C234.390472,527.251099 236.083893,526.393066 237.778580,525.931702 
	C237.758682,525.400085 237.738785,524.868469 237.718903,524.336853 
	C236.091309,523.840698 234.493866,523.180298 232.831238,522.875061 
	C222.269867,520.936401 212.090866,517.577698 205.749283,508.525391 
	C200.188766,500.588104 195.047180,491.977081 191.727783,482.927399 
	C184.335266,462.773132 182.020142,441.546265 181.416931,420.149445 
	C181.374756,418.653351 181.539795,417.067139 181.087677,415.694397 
	C180.746185,414.657593 179.572525,413.894897 178.769257,413.010193 
	C178.114578,413.857178 177.123901,414.619476 176.884171,415.570984 
	C176.526535,416.990448 176.653992,418.543213 176.652069,420.039368 
	C176.639481,429.859497 176.647568,439.679626 176.645065,450.499908 
M516.842590,69.580734 
	C513.286194,68.595650 515.041199,71.575211 515.021667,72.462860 
	C514.802979,82.450768 514.770203,92.443344 514.745117,102.434807 
	C514.570007,172.048508 514.406616,241.662262 514.253540,311.276031 
	C514.249817,312.995209 514.408813,314.714752 514.491882,316.434113 
	C514.966370,316.452362 515.440918,316.470612 515.915466,316.488861 
	C516.050781,314.656708 516.297119,312.825043 516.305054,310.992340 
	C516.464539,274.187592 516.627869,237.382812 516.726135,200.577881 
	C516.842163,157.113037 516.897156,113.648026 516.842590,69.580734 
M111.244667,375.841095 
	C113.818726,378.792572 115.102829,376.800568 116.397011,374.540558 
	C119.208603,369.630798 122.030716,364.726227 124.926804,359.866150 
	C125.863441,358.294342 127.044312,356.868011 128.113464,355.375153 
	C128.757141,355.526337 129.400803,355.677521 130.044464,355.828705 
	C130.044464,364.680511 130.044464,373.532318 130.044464,382.384125 
	C133.762512,377.890411 133.160217,348.637146 130.184128,345.760803 
	C124.801369,354.797028 119.473732,363.740692 113.525215,373.726654 
	C108.138062,364.715515 103.611694,357.026062 98.929886,349.432495 
	C98.174271,348.206940 96.726982,347.407806 95.599434,346.411560 
	C95.128014,347.850098 94.266953,349.283600 94.248291,350.727997 
	C94.125694,360.216461 94.167465,369.707336 94.209869,379.197174 
	C94.214432,380.217834 94.567467,381.236877 94.758858,382.256683 
	C95.228882,382.333893 95.698906,382.411072 96.168930,382.488281 
	C96.555946,381.013062 97.242256,379.544861 97.276848,378.061401 
	C97.408783,372.403778 97.268883,366.740112 97.370491,361.081207 
	C97.399124,359.486450 97.905617,357.900299 98.192924,356.310181 
	C98.712425,356.220551 99.231918,356.130890 99.751411,356.041260 
	C103.476074,362.462219 107.200729,368.883148 111.244667,375.841095 
M515.321472,368.275146 
	C516.966064,354.951813 510.329346,346.768066 496.965637,345.865234 
	C492.994202,345.596924 488.991638,345.815186 485.004547,345.743835 
	C482.250122,345.694550 481.118225,347.041260 481.127655,349.711945 
	C481.162323,359.518219 481.015900,369.328461 481.304962,379.126373 
	C481.341614,380.369019 483.454834,382.443237 484.776459,382.589233 
	C488.881256,383.042694 493.071259,382.856018 497.222565,382.730316 
	C506.395233,382.452576 512.239868,377.946136 515.321472,368.275146 
M700.899597,382.718475 
	C707.063293,382.355896 713.358032,383.542938 719.398987,381.123932 
	C714.477173,380.252991 709.577576,380.329071 704.681274,380.233765 
	C698.544739,380.114349 697.730408,379.251770 697.608398,373.299316 
	C697.455688,365.841797 697.962219,365.309540 705.276611,365.277130 
	C708.103577,365.264587 710.934448,365.346466 713.755249,365.211243 
	C714.651184,365.168274 715.520264,364.562439 716.401672,364.214203 
	C716.326050,363.760956 716.250488,363.307739 716.174866,362.854492 
	C711.921570,362.854492 707.660095,363.006134 703.418884,362.779388 
	C701.737244,362.689453 698.823669,361.999451 698.667908,361.169922 
	C698.043457,357.846375 697.646118,354.189514 698.502991,351.017426 
	C698.859558,349.697479 702.527588,348.745300 704.764038,348.569305 
	C709.448853,348.200592 714.182922,348.457520 718.896729,348.457520 
	C718.968628,347.918488 719.040466,347.379486 719.112366,346.840454 
	C717.869385,346.496582 716.631958,345.881470 715.382446,345.855927 
	C710.063293,345.747131 704.739075,345.889191 699.419617,345.788422 
	C695.796143,345.719788 694.419922,347.288330 694.486267,350.917358 
	C694.647461,359.728088 694.748596,368.550873 694.448853,377.354340 
	C694.300720,381.705780 696.095276,383.073608 700.899597,382.718475 
M224.834579,362.502502 
	C224.834412,365.998535 224.746826,369.497437 224.859985,372.989777 
	C224.961914,376.136230 225.283859,379.275513 225.508759,382.417969 
	C226.220093,382.383453 226.931442,382.348969 227.642776,382.314484 
	C227.824341,379.944946 227.781693,377.527954 228.269653,375.223328 
	C228.573486,373.788239 229.351791,371.849152 230.482849,371.298767 
	C235.248520,368.979736 242.156143,371.185822 245.316681,375.653198 
	C246.566223,377.419434 247.656525,379.323914 249.087982,380.925323 
	C249.842697,381.769623 251.175568,382.097137 252.247375,382.657990 
	C252.512283,382.291290 252.777176,381.924561 253.042068,381.557831 
	C251.507507,379.453705 250.063156,377.275757 248.416931,375.262939 
	C246.022125,372.334778 245.514053,370.025787 249.261444,367.541260 
	C253.763123,364.556641 254.182907,359.769836 253.024780,355.006775 
	C251.857468,350.206024 248.447449,347.185150 243.572525,346.577393 
	C238.806244,345.983215 233.957672,346.042572 229.144409,345.833984 
	C225.874039,345.692230 224.759552,347.492645 224.824051,350.518066 
	C224.902115,354.178864 224.837646,357.842682 224.834579,362.502502 
M161.568619,373.013641 
	C165.747299,380.570465 172.477020,383.471863 180.708237,382.877655 
	C188.678757,382.302277 194.568039,378.283630 197.189987,370.530457 
	C199.767487,362.908691 198.030930,356.064606 192.196487,350.483643 
	C186.193268,344.741241 175.198334,343.994476 168.075226,348.650085 
	C160.141129,353.835663 157.766449,362.082977 161.568619,373.013641 
M419.693481,361.500824 
	C420.764923,352.110687 417.095398,347.207825 407.817719,346.162842 
	C403.875641,345.718811 399.860992,345.914307 395.879120,345.829071 
	C392.684052,345.760712 391.533752,347.417236 391.559143,350.504517 
	C391.639679,360.302185 391.557037,370.101135 391.597626,379.899353 
	C391.601227,380.770599 392.041687,381.640015 392.279236,382.510284 
	C392.804779,382.545563 393.330322,382.580872 393.855865,382.616180 
	C394.081726,380.610596 394.335938,378.607727 394.526276,376.598785 
	C394.760986,374.121735 394.553131,371.299683 398.056641,371.005890 
	C403.467407,370.552216 409.088226,369.479279 412.138733,376.028412 
	C413.030029,377.942017 414.557983,379.607910 416.008392,381.191010 
	C416.701172,381.947144 417.895111,382.244019 418.862030,382.748932 
	C417.848816,379.200836 416.154205,376.597198 414.284241,374.126251 
	C412.655334,371.973785 412.106750,370.415375 414.787659,368.372040 
	C416.771271,366.860077 417.964722,364.311493 419.693481,361.500824 
M289.022552,376.754364 
	C290.590485,378.675385 292.158386,380.596436 293.726288,382.517487 
	C295.160706,380.625153 296.976685,378.911652 297.962250,376.808960 
	C301.844788,368.526001 305.500549,360.135620 309.155518,351.748077 
	C309.881500,350.082062 310.233215,348.252991 310.757507,346.499115 
	C310.283966,346.284637 309.810425,346.070129 309.336914,345.855652 
	C308.402557,347.224182 307.246582,348.492126 306.572113,349.978607 
	C303.615509,356.494720 300.864044,363.104095 297.894928,369.614288 
	C296.857422,371.889130 295.408295,373.976288 293.372345,377.484131 
	C287.105347,366.306641 284.272736,355.051361 277.972015,345.740540 
	C277.289856,346.071716 276.607697,346.402924 275.925537,346.734100 
	C280.186981,356.516541 284.448456,366.299011 289.022552,376.754364 
M357.854614,362.299805 
	C355.872620,357.907288 354.018646,353.449432 351.830109,349.162354 
	C351.179626,347.888153 349.700043,346.557007 348.386871,346.285858 
	C347.629303,346.129425 346.083221,347.865601 345.511871,349.049133 
	C342.045380,356.230255 338.727478,363.483917 335.422150,370.741699 
	C333.732513,374.451721 332.172180,378.220642 330.553436,381.962952 
	C331.003235,382.285583 331.453033,382.608185 331.902832,382.930786 
	C332.828217,381.824463 334.221191,380.857025 334.598267,379.587769 
	C336.256500,374.006348 339.866730,371.910248 345.501190,372.608337 
	C347.466370,372.851776 349.513092,372.855072 351.477386,372.608337 
	C357.047302,371.908783 360.747437,373.870026 362.543030,379.398987 
	C362.971619,380.718719 364.416290,381.708527 365.393616,382.850067 
	C365.841217,382.518494 366.288788,382.186920 366.736389,381.855377 
	C363.876526,375.567169 361.016663,369.278961 357.854614,362.299805 
M761.429993,346.553955 
	C759.957275,347.394897 757.746399,347.873901 757.128601,349.134003 
	C752.164001,359.259216 747.482971,369.523956 742.778992,379.775299 
	C742.434998,380.524933 742.589966,381.503479 742.512939,382.375610 
	C744.373901,381.958984 745.821289,381.120239 746.089355,379.999420 
	C747.741150,373.092957 752.549500,371.956024 758.603394,372.612671 
	C760.572876,372.826355 762.604858,372.832916 764.572998,372.615479 
	C769.054504,372.120514 771.740112,373.958191 773.268494,378.195770 
	C773.903564,379.956268 775.474915,381.379089 776.620483,382.955475 
	C777.220276,382.548950 777.820129,382.142395 778.419922,381.735870 
	C772.916443,370.140106 767.412964,358.544342 761.429993,346.553955 
M927.032776,358.288940 
	C926.419861,359.278107 925.818176,360.274384 925.192261,361.255280 
	C921.937805,366.355011 921.007935,366.314728 917.865723,361.118988 
	C915.372803,356.996918 912.849243,352.889923 910.200500,348.867615 
	C909.445251,347.720795 908.205322,346.893097 907.187744,345.919037 
	C906.756226,346.265045 906.324707,346.611023 905.893250,346.957001 
	C908.619080,351.602264 911.047974,356.457458 914.145996,360.839600 
	C918.013184,366.309753 920.781250,371.879120 919.832947,378.824219 
	C919.672180,380.001343 920.490906,381.312195 920.857056,382.561249 
	C921.561890,382.661530 922.266724,382.761841 922.971619,382.862152 
	C920.026306,367.727417 931.883911,358.569092 936.821594,346.617004 
	C936.247925,346.279938 935.674255,345.942902 935.100586,345.605865 
	C932.553772,349.631042 930.006958,353.656250 927.032776,358.288940 
M870.458984,366.496735 
	C870.458984,371.771179 870.458984,377.045624 870.458984,382.320099 
	C871.218018,382.338074 871.977051,382.356049 872.736023,382.374023 
	C872.994873,380.748169 873.459045,379.124634 873.477600,377.496033 
	C873.564941,369.832031 873.661987,362.163635 873.487915,354.502899 
	C873.387146,350.068756 875.007385,347.991943 879.619141,348.322540 
	C881.783447,348.477631 883.990295,348.039764 886.177795,347.870605 
	C886.150085,347.271240 886.122314,346.671875 886.094543,346.072510 
	C876.596313,345.707245 867.100159,345.527649 857.604736,347.093140 
	C859.866150,348.121094 862.156006,348.498596 864.403320,348.324921 
	C869.039734,347.966614 870.713684,350.074097 870.480469,354.503784 
	C870.287964,358.159119 870.453064,361.833282 870.458984,366.496735 
z"/>
<path fill="#2F2F2F" opacity="1.000000" stroke="none" 
	d="
M646.916565,413.876221 
	C652.131348,413.383209 657.340027,412.557678 662.562073,412.461395 
	C676.574036,412.203064 674.966248,412.303009 674.988525,424.936279 
	C675.038574,453.267303 675.142639,481.599640 674.895508,509.928589 
	C674.845154,515.696899 676.719238,518.828674 682.279358,520.478943 
	C720.478516,531.816895 758.449036,534.036560 795.279663,516.031982 
	C823.696716,502.140350 837.796082,477.997284 840.190613,447.018585 
	C840.927246,437.489197 839.760620,427.765961 838.905090,418.181488 
	C838.521667,413.885956 839.719604,412.325226 843.867493,412.400970 
	C850.031494,412.513550 856.199646,412.503387 862.364441,412.425964 
	C866.005737,412.380219 867.804382,414.101440 868.456116,417.617615 
	C874.497559,450.211395 865.309143,491.084717 831.653564,513.790649 
	C812.103271,526.980286 790.201050,533.040771 767.079102,533.453125 
	C747.989685,533.793518 728.783142,532.580505 709.764099,530.690857 
	C680.360901,527.769409 650.953125,526.385437 621.429871,526.839844 
	C619.232422,526.873718 617.024231,526.206177 614.821045,525.864746 
	C614.858093,525.264099 614.895203,524.663452 614.932251,524.062744 
	C616.106323,523.790771 617.270935,523.336609 618.455933,523.274963 
	C629.486938,522.701782 637.093201,516.658142 639.818481,506.616028 
	C642.756653,495.789551 643.595459,484.384491 645.203308,473.210693 
	C645.769409,469.276184 645.901428,465.279175 646.523987,461.107971 
	C647.089844,460.977753 647.361023,461.072693 647.638916,461.100586 
	C647.684937,461.105194 647.814697,460.816437 647.814514,460.663361 
	C647.794434,445.852081 647.778076,431.040710 647.702515,416.229675 
	C647.698486,415.443878 647.190125,414.660614 646.916565,413.876221 
z"/>
<path fill="#2F2F2F" opacity="1.000000" stroke="none" 
	d="
M179.021667,317.361542 
	C178.400040,315.298981 177.257919,313.241455 177.237915,311.173065 
	C177.054153,292.181519 177.286652,273.183960 176.932190,254.196854 
	C176.733475,243.552109 176.106384,232.868622 174.810440,222.308334 
	C174.009583,215.782181 172.113892,209.254044 169.757416,203.090912 
	C167.036713,195.975174 161.452637,191.643005 153.700714,190.351593 
	C151.253922,189.943970 148.889740,189.040390 146.487747,188.363785 
	C146.544968,187.768829 146.602203,187.173889 146.659424,186.578934 
	C148.459244,186.195847 150.257065,185.491592 152.059189,185.480453 
	C166.553223,185.390747 181.048553,185.496109 195.542358,185.389450 
	C199.381714,185.361191 201.525223,186.903412 203.183502,190.410568 
	C222.192795,230.613907 241.349442,270.747589 260.447968,310.908752 
	C261.088104,312.254822 261.529694,313.695374 261.644409,315.484619 
	C257.448303,315.920868 253.666733,315.858795 249.895981,316.032135 
	C243.865692,316.309296 237.842575,316.742767 231.816437,317.110199 
	C230.431641,314.884521 228.800751,312.773773 227.699280,310.415741 
	C213.206375,279.389374 198.807663,248.319016 184.292633,217.303040 
	C183.574722,215.769028 182.006226,214.633087 180.330017,213.422241 
	C179.583893,214.635620 179.135468,215.737732 179.131027,216.841614 
	C179.085144,228.233322 179.110977,239.625290 179.086853,251.483978 
	C179.045151,273.754364 179.033417,295.557953 179.021667,317.361542 
z"/>
<path fill="#2F2F2F" opacity="1.000000" stroke="none" 
	d="
M747.980408,317.315155 
	C747.246582,317.358154 746.512756,317.401123 745.778931,317.444122 
	C745.661987,317.112976 745.545044,316.781830 745.428101,316.450684 
	C751.552917,313.340454 757.715637,310.302429 763.794983,307.105835 
	C779.439636,298.879700 794.796326,290.189453 806.415771,276.415405 
	C830.311523,248.088486 820.062012,206.861725 785.557556,193.117233 
	C777.104980,189.750229 768.199097,187.521515 759.014404,184.262817 
	C755.977661,182.884476 753.468689,181.438339 750.870422,181.254837 
	C744.485291,180.803925 738.059082,180.934189 731.649414,180.830673 
	C733.539307,180.125381 735.421631,178.834641 737.320251,178.810211 
	C749.302673,178.656097 761.400696,177.753632 773.248962,179.042847 
	C794.353577,181.339203 815.216980,185.552216 831.718323,200.499542 
	C851.511658,218.428818 854.240906,253.308868 838.476562,277.279572 
	C828.247009,292.834137 813.078613,301.969299 797.123413,310.116730 
	C791.527649,312.974243 785.479614,314.946136 778.950806,317.108826 
	C768.169067,317.035248 758.074768,317.175201 747.980408,317.315155 
z"/>
<path fill="#303030" opacity="1.000000" stroke="none" 
	d="
M402.420349,525.202026 
	C405.158173,523.829224 407.775360,522.150452 410.579437,521.735840 
	C421.436096,520.130493 425.894470,512.354797 428.393768,503.181335 
	C430.131409,496.803375 431.257812,490.111298 431.540588,483.511719 
	C432.445465,462.395721 432.865753,441.258270 433.395844,420.127197 
	C433.580261,412.777008 433.763153,412.464417 440.969849,412.415588 
	C445.799652,412.382874 450.630096,412.381226 455.459839,412.417084 
	C462.844940,412.471893 463.245819,412.862549 463.290253,420.461273 
	C463.374939,434.950714 462.915680,449.464508 463.617157,463.922821 
	C464.219849,476.345856 465.610748,488.788879 467.598328,501.070129 
	C469.600586,513.441833 476.656219,521.583923 489.940735,522.996338 
	C491.345886,523.145691 492.661285,524.139099 494.018311,524.741028 
	C493.973175,525.232544 493.928040,525.724060 493.882904,526.215576 
	C492.263306,526.588318 490.644531,527.281921 489.024017,527.285950 
	C461.709625,527.353210 434.394836,527.365173 407.080688,527.255676 
	C405.513306,527.249329 403.950531,526.096191 402.420349,525.202026 
M460.955017,438.493011 
	C460.955017,442.950439 460.955017,447.407867 460.955017,451.865265 
	C461.190399,451.851593 461.425751,451.837921 461.661133,451.824219 
	C461.661133,440.253540 461.661133,428.682861 461.661133,417.112152 
	C461.425842,417.111542 461.190521,417.110962 460.955231,417.110352 
	C460.955231,423.905487 460.955231,430.700653 460.955017,438.493011 
z"/>
<path fill="#2F2F2F" opacity="1.000000" stroke="none" 
	d="
M646.593689,250.381989 
	C646.164490,247.621384 645.651917,244.870712 645.321106,242.098389 
	C644.102600,231.886963 643.512329,221.561417 641.614624,211.480453 
	C639.408752,199.762573 632.841309,191.524689 620.100647,189.776733 
	C618.431458,189.547714 616.835571,188.784927 615.205688,188.269363 
	C615.193176,187.773712 615.180664,187.278046 615.168152,186.782379 
	C616.545837,186.343109 617.906433,185.603439 619.304565,185.523788 
	C622.784607,185.325562 626.283386,185.350433 629.771851,185.421967 
	C656.727234,185.974625 683.599670,184.715790 710.407959,181.890915 
	C712.696960,181.649734 715.033875,181.862823 718.092285,182.099609 
	C721.310730,182.632248 723.785400,182.930176 726.260132,183.228104 
	C724.758423,183.719498 723.267517,184.600510 721.753418,184.642288 
	C705.672852,185.086105 690.269592,188.933289 674.528442,194.211441 
	C673.693359,197.508972 673.088440,200.293549 673.083069,203.079285 
	C673.017456,237.028427 673.040771,270.977753 673.037292,304.927002 
	C673.037109,306.757355 672.982483,308.587738 672.988831,310.418030 
	C673.001587,314.088684 671.264587,315.978821 667.519348,315.961182 
	C663.525757,315.942383 659.531311,316.033081 655.538208,315.989227 
	C648.873169,315.915955 648.085388,315.162720 648.062012,308.458984 
	C647.998779,290.319611 648.005615,272.180023 647.964600,254.040527 
	C647.960754,252.353882 647.813843,250.667587 647.687378,248.016113 
	C647.010071,249.481201 646.801880,249.931595 646.593689,250.381989 
z"/>
<path fill="#2F2F2F" opacity="1.000000" stroke="none" 
	d="
M479.998505,191.849854 
	C479.684357,192.006531 479.370239,192.163223 478.493896,192.331573 
	C475.701660,193.766235 472.480682,194.686249 471.449493,196.717758 
	C469.351379,200.851334 468.435181,205.584839 467.031921,210.071121 
	C467.031921,210.071121 467.012268,210.012634 466.781219,210.234131 
	C465.595245,211.976227 464.032043,213.406982 463.791840,215.033142 
	C462.807953,221.694641 462.151917,228.409332 461.585876,235.122208 
	C461.507446,236.051971 462.607819,237.081131 463.162537,238.064285 
	C463.149231,239.113556 463.135925,240.162842 462.824554,241.881805 
	C461.928864,250.011703 461.331268,257.471893 460.771362,265.406555 
	C460.708649,282.587097 460.608215,299.293152 460.282471,315.996094 
	C459.756683,315.989197 459.456207,315.985718 458.670990,315.987518 
	C450.629486,315.994202 443.072784,315.995941 435.248413,315.995361 
	C434.623688,315.990326 434.266663,315.987579 433.909607,315.984802 
	C433.909729,315.544037 433.909851,315.103271 434.194977,314.052673 
	C434.979401,311.556580 435.908936,309.671448 435.914124,307.783783 
	C436.002197,275.845734 436.010803,243.907242 435.888855,211.969406 
	C435.881256,209.975861 434.650604,207.986969 433.988953,205.995926 
	C433.974152,204.912964 433.959381,203.830002 434.105377,202.004425 
	C433.719757,198.143433 433.173340,195.025055 432.626923,191.906677 
	C432.626923,191.906677 432.709961,191.891266 432.994934,191.706635 
	C436.147949,190.036606 438.960999,187.411057 441.893799,187.269699 
	C452.685394,186.749557 463.516663,187.057358 474.333008,187.043976 
	C477.596802,187.039932 479.848999,188.197601 479.998505,191.849854 
z"/>
<path fill="#303030" opacity="1.000000" stroke="none" 
	d="
M176.646988,449.999817 
	C176.647568,439.679626 176.639481,429.859497 176.652069,420.039368 
	C176.653992,418.543213 176.526535,416.990448 176.884171,415.570984 
	C177.123901,414.619476 178.114578,413.857178 178.769257,413.010193 
	C179.572525,413.894897 180.746185,414.657593 181.087677,415.694397 
	C181.539795,417.067139 181.374756,418.653351 181.416931,420.149445 
	C182.020142,441.546265 184.335266,462.773132 191.727783,482.927399 
	C195.047180,491.977081 200.188766,500.588104 205.749283,508.525391 
	C212.090866,517.577698 222.269867,520.936401 232.831238,522.875061 
	C234.493866,523.180298 236.091309,523.840698 237.718903,524.336853 
	C237.738785,524.868469 237.758682,525.400085 237.778580,525.931702 
	C236.083893,526.393066 234.390472,527.251099 232.694336,527.256531 
	C205.398178,527.343323 178.101624,527.342773 150.805405,527.270874 
	C149.205826,527.266663 147.608276,526.487671 146.009781,526.069153 
	C145.993958,525.624268 145.978149,525.179382 145.962326,524.734497 
	C147.044540,524.219788 148.090759,523.358948 149.214371,523.242004 
	C166.776993,521.414856 172.516144,508.598267 174.015411,495.302246 
	C175.689255,480.458038 175.834503,465.441467 176.646988,449.999817 
M177.176102,498.488647 
	C177.063232,498.523254 176.950363,498.557861 176.837479,498.592438 
	C176.937347,498.594238 177.037231,498.596008 177.176102,498.488647 
z"/>
<path fill="#303030" opacity="1.000000" stroke="none" 
	d="
M316.377869,499.123230 
	C316.294800,498.945221 316.211731,498.767242 316.110718,498.001068 
	C315.573914,495.734222 315.216858,493.983643 314.507874,492.389526 
	C311.600250,485.852081 308.713257,479.299347 305.551453,472.883942 
	C304.158966,470.058502 302.127502,467.548004 300.386169,464.894501 
	C293.633514,450.817627 287.005157,436.679352 280.089478,422.683044 
	C274.429718,411.228638 276.351105,412.510376 287.071381,412.416138 
	C292.557373,412.367920 298.045013,412.495239 303.530762,412.435547 
	C307.044434,412.397339 309.471741,413.635773 310.974091,417.040344 
	C314.126099,424.183075 317.545044,431.208038 320.868835,438.954681 
	C321.601379,442.271423 321.925842,445.108795 323.114380,447.520355 
	C326.190338,453.761597 329.647278,459.815125 332.952118,465.943573 
	C332.922302,466.156281 332.892456,466.368988 332.494904,467.048828 
	C330.753571,471.679626 329.379944,475.843292 328.006317,480.006989 
	C327.929413,480.274902 327.852509,480.542847 327.473999,481.413025 
	C325.010040,486.282776 323.003021,490.640228 320.610260,494.774414 
	C319.627747,496.471924 317.813660,497.688080 316.377869,499.123230 
z"/>
<path fill="#535353" opacity="1.000000" stroke="none" 
	d="
M516.910583,69.881912 
	C516.897156,113.648026 516.842163,157.113037 516.726135,200.577881 
	C516.627869,237.382812 516.464539,274.187592 516.305054,310.992340 
	C516.297119,312.825043 516.050781,314.656708 515.915466,316.488861 
	C515.440918,316.470612 514.966370,316.452362 514.491882,316.434113 
	C514.408813,314.714752 514.249817,312.995209 514.253540,311.276031 
	C514.406616,241.662262 514.570007,172.048508 514.745117,102.434807 
	C514.770203,92.443344 514.802979,82.450768 515.021667,72.462860 
	C515.041199,71.575211 513.286194,68.595650 516.910583,69.881912 
z"/>
<path fill="#575757" opacity="1.000000" stroke="none" 
	d="
M111.085030,375.572601 
	C107.200729,368.883148 103.476074,362.462219 99.751411,356.041260 
	C99.231918,356.130890 98.712425,356.220551 98.192924,356.310181 
	C97.905617,357.900299 97.399124,359.486450 97.370491,361.081207 
	C97.268883,366.740112 97.408783,372.403778 97.276848,378.061401 
	C97.242256,379.544861 96.555946,381.013062 96.168930,382.488281 
	C95.698906,382.411072 95.228882,382.333893 94.758858,382.256683 
	C94.567467,381.236877 94.214432,380.217834 94.209869,379.197174 
	C94.167465,369.707336 94.125694,360.216461 94.248291,350.727997 
	C94.266953,349.283600 95.128014,347.850098 95.599426,346.411560 
	C96.726982,347.407806 98.174271,348.206940 98.929886,349.432495 
	C103.611694,357.026062 108.138062,364.715515 113.525215,373.726654 
	C119.473732,363.740692 124.801369,354.797028 130.184128,345.760803 
	C133.160217,348.637146 133.762512,377.890411 130.044464,382.384125 
	C130.044464,373.532318 130.044464,364.680511 130.044464,355.828705 
	C129.400803,355.677521 128.757141,355.526337 128.113464,355.375153 
	C127.044312,356.868011 125.863441,358.294342 124.926804,359.866150 
	C122.030716,364.726227 119.208603,369.630798 116.397011,374.540558 
	C115.102829,376.800568 113.818726,378.792572 111.085030,375.572601 
z"/>
<path fill="#535353" opacity="1.000000" stroke="none" 
	d="
M515.258850,368.657776 
	C512.239868,377.946136 506.395233,382.452576 497.222565,382.730316 
	C493.071259,382.856018 488.881256,383.042694 484.776459,382.589233 
	C483.454834,382.443237 481.341614,380.369019 481.304962,379.126373 
	C481.015900,369.328461 481.162323,359.518219 481.127655,349.711945 
	C481.118225,347.041260 482.250122,345.694550 485.004547,345.743835 
	C488.991638,345.815186 492.994202,345.596924 496.965637,345.865234 
	C510.329346,346.768066 516.966064,354.951813 515.258850,368.657776 
M508.567444,375.000214 
	C515.174377,366.492249 513.988831,355.594879 504.717072,351.205627 
	C499.516571,348.743713 492.863190,349.226837 486.834900,348.787720 
	C486.045013,348.730164 484.351227,351.064056 484.313690,352.327087 
	C484.076385,360.316376 483.995422,368.324890 484.365326,376.303802 
	C484.430298,377.704987 486.754791,380.001801 488.228516,380.167145 
	C495.277618,380.957916 502.273102,380.666260 508.567444,375.000214 
z"/>
<path fill="#575757" opacity="1.000000" stroke="none" 
	d="
M700.459595,382.714539 
	C696.095276,383.073608 694.300720,381.705780 694.448853,377.354340 
	C694.748596,368.550873 694.647461,359.728088 694.486267,350.917358 
	C694.419922,347.288330 695.796143,345.719788 699.419617,345.788422 
	C704.739075,345.889191 710.063293,345.747131 715.382446,345.855927 
	C716.631958,345.881470 717.869385,346.496582 719.112366,346.840454 
	C719.040466,347.379486 718.968628,347.918488 718.896729,348.457520 
	C714.182922,348.457520 709.448853,348.200592 704.764038,348.569305 
	C702.527588,348.745300 698.859558,349.697479 698.502991,351.017426 
	C697.646118,354.189514 698.043457,357.846375 698.667908,361.169922 
	C698.823669,361.999451 701.737244,362.689453 703.418884,362.779388 
	C707.660095,363.006134 711.921570,362.854492 716.174866,362.854492 
	C716.250488,363.307739 716.326050,363.760956 716.401672,364.214203 
	C715.520264,364.562439 714.651184,365.168274 713.755249,365.211243 
	C710.934448,365.346466 708.103577,365.264587 705.276611,365.277130 
	C697.962219,365.309540 697.455688,365.841797 697.608398,373.299316 
	C697.730408,379.251770 698.544739,380.114349 704.681274,380.233765 
	C709.577576,380.329071 714.477173,380.252991 719.398987,381.123932 
	C713.358032,383.542938 707.063293,382.355896 700.459595,382.714539 
z"/>
<path fill="#434343" opacity="1.000000" stroke="none" 
	d="
M513.976379,480.001587 
	C513.903381,458.692200 513.823608,437.382782 513.784729,416.073334 
	C513.783325,415.316589 514.185547,414.559113 515.518799,413.676849 
	C515.776978,414.918335 516.261658,416.159943 516.260742,417.401215 
	C516.220276,472.356781 516.138733,527.312317 516.042908,582.267822 
	C516.041504,583.087097 515.799622,583.906067 515.424500,584.566528 
	C515.099548,581.423279 514.950684,578.438660 514.951294,575.454102 
	C514.957275,546.579651 515.018372,517.705200 514.966675,488.830933 
	C514.961426,485.887238 514.321716,482.944672 513.976379,480.001587 
z"/>
<path fill="#575757" opacity="1.000000" stroke="none" 
	d="
M224.834717,362.003845 
	C224.837646,357.842682 224.902115,354.178864 224.824051,350.518066 
	C224.759552,347.492645 225.874039,345.692230 229.144409,345.833984 
	C233.957672,346.042572 238.806244,345.983215 243.572525,346.577393 
	C248.447449,347.185150 251.857468,350.206024 253.024780,355.006775 
	C254.182907,359.769836 253.763123,364.556641 249.261444,367.541260 
	C245.514053,370.025787 246.022125,372.334778 248.416931,375.262939 
	C250.063156,377.275757 251.507507,379.453705 253.042068,381.557831 
	C252.777176,381.924561 252.512283,382.291290 252.247375,382.657990 
	C251.175568,382.097137 249.842697,381.769623 249.087982,380.925323 
	C247.656525,379.323914 246.566223,377.419434 245.316681,375.653198 
	C242.156143,371.185822 235.248520,368.979736 230.482849,371.298767 
	C229.351791,371.849152 228.573486,373.788239 228.269653,375.223328 
	C227.781693,377.527954 227.824341,379.944946 227.642776,382.314484 
	C226.931442,382.348969 226.220093,382.383453 225.508759,382.417969 
	C225.283859,379.275513 224.961914,376.136230 224.859985,372.989777 
	C224.746826,369.497437 224.834412,365.998535 224.834717,362.003845 
M232.407425,368.569611 
	C235.714233,368.393494 239.098419,368.600677 242.309937,367.952454 
	C247.273346,366.950623 250.463303,362.983093 250.556015,358.595306 
	C250.650055,354.145691 247.436096,349.667389 242.794128,348.897949 
	C238.906616,348.253540 234.858002,348.332672 230.902191,348.527496 
	C229.941879,348.574799 228.335922,350.294922 228.275970,351.318939 
	C227.995178,356.116119 227.958435,360.952759 228.305771,365.741150 
	C228.378891,366.749207 230.433670,367.613586 232.407425,368.569611 
z"/>
<path fill="#575757" opacity="1.000000" stroke="none" 
	d="
M161.411499,372.676270 
	C157.766449,362.082977 160.141129,353.835663 168.075226,348.650085 
	C175.198334,343.994476 186.193268,344.741241 192.196487,350.483643 
	C198.030930,356.064606 199.767487,362.908691 197.189987,370.530457 
	C194.568039,378.283630 188.678757,382.302277 180.708237,382.877655 
	C172.477020,383.471863 165.747299,380.570465 161.411499,372.676270 
M185.160828,379.202850 
	C196.215652,372.843079 198.396393,359.166779 189.485138,352.083313 
	C182.696365,346.686981 174.910675,346.811462 168.129318,352.424805 
	C162.418076,357.152344 160.916183,365.572876 164.585892,372.291290 
	C168.184464,378.879486 176.451843,381.892639 185.160828,379.202850 
z"/>
<path fill="#575757" opacity="1.000000" stroke="none" 
	d="
M419.601868,361.862793 
	C417.964722,364.311493 416.771271,366.860077 414.787659,368.372040 
	C412.106750,370.415375 412.655334,371.973785 414.284241,374.126251 
	C416.154205,376.597198 417.848816,379.200836 418.862030,382.748932 
	C417.895111,382.244019 416.701172,381.947144 416.008392,381.191010 
	C414.557983,379.607910 413.030029,377.942017 412.138733,376.028412 
	C409.088226,369.479279 403.467407,370.552216 398.056641,371.005890 
	C394.553131,371.299683 394.760986,374.121735 394.526276,376.598785 
	C394.335938,378.607727 394.081726,380.610596 393.855865,382.616180 
	C393.330322,382.580872 392.804779,382.545563 392.279236,382.510284 
	C392.041687,381.640015 391.601227,380.770599 391.597626,379.899353 
	C391.557037,370.101135 391.639679,360.302185 391.559143,350.504517 
	C391.533752,347.417236 392.684052,345.760712 395.879120,345.829071 
	C399.860992,345.914307 403.875641,345.718811 407.817719,346.162842 
	C417.095398,347.207825 420.764923,352.110687 419.601868,361.862793 
M398.099976,368.548523 
	C402.362305,368.115997 406.761047,368.197845 410.850555,367.113525 
	C415.397217,365.907990 417.294708,362.229065 416.932465,357.445984 
	C416.579651,352.786987 413.811127,349.884735 409.647675,349.038452 
	C405.634338,348.222687 401.367126,348.293152 397.254517,348.583801 
	C396.228424,348.656281 394.693054,351.012573 394.560516,352.428528 
	C394.189819,356.390106 394.185455,360.432068 394.560059,364.392792 
	C394.695160,365.821411 396.319458,367.109161 398.099976,368.548523 
z"/>
<path fill="#575757" opacity="1.000000" stroke="none" 
	d="
M288.866211,376.417908 
	C284.448456,366.299011 280.186981,356.516541 275.925537,346.734100 
	C276.607697,346.402924 277.289856,346.071716 277.972015,345.740540 
	C284.272736,355.051361 287.105347,366.306641 293.372345,377.484131 
	C295.408295,373.976288 296.857422,371.889130 297.894928,369.614288 
	C300.864044,363.104095 303.615509,356.494720 306.572113,349.978607 
	C307.246582,348.492126 308.402557,347.224182 309.336914,345.855652 
	C309.810425,346.070129 310.283966,346.284637 310.757507,346.499115 
	C310.233215,348.252991 309.881500,350.082062 309.155518,351.748077 
	C305.500549,360.135620 301.844788,368.526001 297.962250,376.808960 
	C296.976685,378.911652 295.160706,380.625153 293.726288,382.517487 
	C292.158386,380.596436 290.590485,378.675385 288.866211,376.417908 
z"/>
<path fill="#575757" opacity="1.000000" stroke="none" 
	d="
M358.005707,362.645264 
	C361.016663,369.278961 363.876526,375.567169 366.736389,381.855377 
	C366.288788,382.186920 365.841217,382.518494 365.393616,382.850067 
	C364.416290,381.708527 362.971619,380.718719 362.543030,379.398987 
	C360.747437,373.870026 357.047302,371.908783 351.477386,372.608337 
	C349.513092,372.855072 347.466370,372.851776 345.501190,372.608337 
	C339.866730,371.910248 336.256500,374.006348 334.598267,379.587769 
	C334.221191,380.857025 332.828217,381.824463 331.902832,382.930786 
	C331.453033,382.608185 331.003235,382.285583 330.553436,381.962952 
	C332.172180,378.220642 333.732513,374.451721 335.422150,370.741699 
	C338.727478,363.483917 342.045380,356.230255 345.511871,349.049133 
	C346.083221,347.865601 347.629303,346.129425 348.386871,346.285858 
	C349.700043,346.557007 351.179626,347.888153 351.830109,349.162354 
	C354.018646,353.449432 355.872620,357.907288 358.005707,362.645264 
M340.336243,369.190155 
	C345.353088,369.565796 350.367096,370.022369 355.390961,370.200867 
	C355.936401,370.220245 357.223969,368.347382 357.010193,367.833801 
	C354.566559,361.962830 351.898285,356.185364 349.289948,350.382935 
	C348.755768,350.382507 348.221619,350.382080 347.687469,350.381622 
	C345.173309,356.404572 342.659180,362.427490 340.336243,369.190155 
z"/>
<path fill="#575757" opacity="1.000000" stroke="none" 
	d="
M761.669739,346.751282 
	C767.412964,358.544342 772.916443,370.140106 778.419922,381.735870 
	C777.820129,382.142395 777.220276,382.548950 776.620483,382.955475 
	C775.474915,381.379089 773.903564,379.956268 773.268494,378.195770 
	C771.740112,373.958191 769.054504,372.120514 764.572998,372.615479 
	C762.604858,372.832916 760.572876,372.826355 758.603394,372.612671 
	C752.549500,371.956024 747.741150,373.092957 746.089355,379.999420 
	C745.821289,381.120239 744.373901,381.958984 742.512939,382.375610 
	C742.589966,381.503479 742.434998,380.524933 742.778992,379.775299 
	C747.482971,369.523956 752.164001,359.259216 757.128601,349.134003 
	C757.746399,347.873901 759.957275,347.394897 761.669739,346.751282 
M754.478088,360.935822 
	C753.379578,363.649506 752.281128,366.363190 750.856140,369.883453 
	C757.272766,369.883453 762.867188,369.883453 769.552307,369.883453 
	C766.369263,362.831543 763.594482,356.684082 760.179565,349.118469 
	C757.889709,353.848480 756.339905,357.049805 754.478088,360.935822 
z"/>
<path fill="#434343" opacity="1.000000" stroke="none" 
	d="
M413.373352,249.430130 
	C409.731812,259.774384 406.200531,270.159180 402.419006,280.452026 
	C398.287384,291.697784 393.946594,302.867126 389.632385,314.044861 
	C389.118561,315.376160 388.199463,316.551025 387.468231,317.798431 
	C386.830383,317.506531 386.192566,317.214630 385.554718,316.922760 
	C393.972961,294.485291 402.391174,272.047791 411.132324,249.444992 
	C412.094635,249.329819 412.734009,249.379974 413.373352,249.430130 
z"/>
<path fill="#434343" opacity="1.000000" stroke="none" 
	d="
M333.102600,465.663391 
	C329.647278,459.815125 326.190338,453.761597 323.114380,447.520355 
	C321.925842,445.108795 321.601379,442.271423 320.942078,439.313477 
	C324.217926,445.308563 327.434906,451.618225 331.398376,459.392029 
	C333.129456,456.213257 334.300690,454.550415 334.995026,452.707886 
	C339.336548,441.187317 343.542114,429.615601 347.873627,418.091217 
	C348.524689,416.358978 349.599884,414.786163 350.777710,412.579834 
	C352.260925,416.737885 341.383392,448.371826 333.102600,465.663391 
z"/>
<path fill="#575757" opacity="1.000000" stroke="none" 
	d="
M927.246460,357.985199 
	C930.006958,353.656250 932.553772,349.631042 935.100586,345.605865 
	C935.674255,345.942902 936.247925,346.279938 936.821594,346.617004 
	C931.883911,358.569092 920.026306,367.727417 922.971619,382.862152 
	C922.266724,382.761841 921.561890,382.661530 920.857056,382.561249 
	C920.490906,381.312195 919.672180,380.001343 919.832947,378.824219 
	C920.781250,371.879120 918.013184,366.309753 914.145996,360.839600 
	C911.047974,356.457458 908.619080,351.602264 905.893250,346.957001 
	C906.324707,346.611023 906.756226,346.265045 907.187744,345.919037 
	C908.205322,346.893097 909.445251,347.720795 910.200500,348.867615 
	C912.849243,352.889923 915.372803,356.996918 917.865723,361.118988 
	C921.007935,366.314728 921.937805,366.355011 925.192261,361.255280 
	C925.818176,360.274384 926.419861,359.278107 927.246460,357.985199 
z"/>
<path fill="#303030" opacity="1.000000" stroke="none" 
	d="
M433.892334,206.392334 
	C434.650604,207.986969 435.881256,209.975861 435.888855,211.969406 
	C436.010803,243.907242 436.002197,275.845734 435.914124,307.783783 
	C435.908936,309.671448 434.979401,311.556580 434.233185,313.724060 
	C433.797668,312.024048 433.446655,310.043030 433.444580,308.061584 
	C433.410675,275.960022 433.415436,243.858444 433.437286,211.756882 
	C433.438416,210.100754 433.670959,208.444778 433.892334,206.392334 
z"/>
<path fill="#575757" opacity="1.000000" stroke="none" 
	d="
M658.296265,346.805634 
	C658.687256,346.858826 659.078186,346.912018 659.912598,347.362305 
	C661.859558,349.829315 663.363098,351.899200 664.866577,353.969116 
	C664.904236,354.429016 664.941895,354.888947 664.799072,355.976532 
	C664.507629,357.218048 664.396545,357.831848 664.285461,358.445679 
	C663.650513,359.497284 663.015503,360.548859 661.779785,361.748291 
	C660.726990,361.872681 660.275024,361.849304 659.849182,361.461853 
	C663.700928,353.540161 661.107239,348.828796 652.736511,348.162567 
	C651.575928,348.070190 650.406555,348.074371 649.240967,348.061340 
	C639.240417,347.949585 638.906189,348.420715 639.513672,358.449402 
	C639.721924,361.887909 641.187256,363.293701 644.483948,363.036072 
	C649.601685,362.636139 654.718079,362.220490 659.877808,362.180115 
	C660.295410,363.969147 660.670349,365.389557 660.723633,366.629822 
	C654.485718,366.064575 648.572327,365.548859 642.650757,365.425964 
	C641.690735,365.406036 640.096252,366.971558 639.808655,368.069672 
	C637.302612,377.639038 639.704407,380.686279 649.465698,380.658356 
	C651.622803,380.652191 653.815063,380.782227 655.930420,380.455902 
	C663.869080,379.231232 666.129028,373.133911 661.456665,366.833252 
	C667.368835,368.134064 665.389954,372.902832 666.242188,376.362396 
	C665.597351,377.418793 664.952515,378.475189 663.706421,379.835663 
	C655.856995,380.718109 648.616455,381.443451 641.357788,381.812225 
	C637.787415,381.993622 637.117554,379.287109 637.121277,376.338654 
	C637.131775,368.179169 637.214478,360.018188 637.081421,351.860840 
	C637.014282,347.744598 638.945557,346.091797 642.846069,346.239624 
	C647.995911,346.434784 653.146179,346.617523 658.296265,346.805634 
z"/>
<path fill="#303030" opacity="1.000000" stroke="none" 
	d="
M413.591827,249.113220 
	C412.734009,249.379974 412.094635,249.329819 411.265686,249.217163 
	C415.445892,236.825562 419.719910,224.461319 424.223694,212.181366 
	C426.672760,205.503769 429.512238,198.969376 432.401306,192.138535 
	C433.173340,195.025055 433.719757,198.143433 434.159485,201.601181 
	C432.543884,203.953934 430.507812,205.758514 429.614075,208.015488 
	C424.804291,220.161499 420.278320,232.419876 415.371796,244.947021 
	C414.844208,245.459290 414.818054,245.711395 415.010742,246.010864 
	C414.610596,246.939346 414.210449,247.867828 413.591827,249.113220 
z"/>
<path fill="#575757" opacity="1.000000" stroke="none" 
	d="
M870.459351,365.997925 
	C870.453064,361.833282 870.287964,358.159119 870.480469,354.503784 
	C870.713684,350.074097 869.039734,347.966614 864.403320,348.324921 
	C862.156006,348.498596 859.866150,348.121094 857.604736,347.093140 
	C867.100159,345.527649 876.596313,345.707245 886.094543,346.072510 
	C886.122314,346.671875 886.150085,347.271240 886.177795,347.870605 
	C883.990295,348.039764 881.783447,348.477631 879.619141,348.322540 
	C875.007385,347.991943 873.387146,350.068756 873.487915,354.502899 
	C873.661987,362.163635 873.564941,369.832031 873.477600,377.496033 
	C873.459045,379.124634 872.994873,380.748169 872.736023,382.374023 
	C871.977051,382.356049 871.218018,382.338074 870.458984,382.320099 
	C870.458984,377.045624 870.458984,371.771179 870.459351,365.997925 
z"/>
<path fill="#303030" opacity="1.000000" stroke="none" 
	d="
M433.923035,316.248047 
	C434.266663,315.987579 434.623688,315.990326 435.686981,316.122620 
	C443.980743,316.162292 451.568237,316.072449 459.155762,315.982605 
	C459.456207,315.985718 459.756683,315.989197 460.486450,315.626770 
	C461.223816,313.817871 461.791931,312.376648 461.799622,310.932434 
	C461.872742,297.192474 461.887390,283.451752 461.806702,269.711945 
	C461.797333,268.116608 461.107849,266.525269 460.733673,264.932098 
	C461.331268,257.471893 461.928864,250.011703 462.773376,242.272400 
	C463.116760,249.301712 463.278809,256.609955 463.296326,263.918549 
	C463.334534,279.886383 463.157898,295.856354 463.376862,311.821198 
	C463.446167,316.876007 461.559204,318.662720 456.635651,318.420929 
	C450.827881,318.135773 444.990234,318.487579 439.177338,318.260925 
	C437.410309,318.192017 435.682312,317.122498 433.923035,316.248047 
z"/>
<path fill="#575757" opacity="1.000000" stroke="none" 
	d="
M833.038818,368.035065 
	C832.976868,369.104675 832.914917,370.174316 832.576233,371.905823 
	C830.589905,378.240570 826.325256,381.088684 821.011902,382.777313 
	C819.285706,382.801117 817.559509,382.824890 815.111450,382.635193 
	C811.626770,380.947327 808.863953,379.472961 806.101196,377.998596 
	C805.455627,376.884247 804.810120,375.769928 804.081055,373.929382 
	C803.631042,364.439362 803.264526,355.675507 802.898071,346.911682 
	C802.898071,346.911682 802.986450,346.508118 803.431641,346.404419 
	C804.547363,348.144562 805.666748,349.954926 805.807312,351.838318 
	C806.307678,358.541443 806.474915,365.269440 806.768188,371.988007 
	C807.985168,373.884216 809.202087,375.780426 810.899231,378.173645 
	C816.921753,382.322205 821.876221,381.852386 825.236694,377.356567 
	C825.788269,377.086304 826.339905,376.816071 827.407654,376.162109 
	C828.534546,374.120850 829.145386,372.463287 829.756165,370.805725 
	C829.878540,362.919556 830.000916,355.033417 830.562012,346.686035 
	C831.628601,346.182770 832.256653,346.140686 832.884644,346.098633 
	C832.884644,346.098633 833.069275,346.465790 833.016602,347.133972 
	C832.988831,354.546448 833.013794,361.290771 833.038818,368.035065 
z"/>
<path fill="#434343" opacity="1.000000" stroke="none" 
	d="
M646.565674,250.820129 
	C646.801880,249.931595 647.010071,249.481201 647.687378,248.016113 
	C647.813843,250.667587 647.960754,252.353882 647.964600,254.040527 
	C648.005615,272.180023 647.998779,290.319611 648.062012,308.458984 
	C648.085388,315.162720 648.873169,315.915955 655.538208,315.989227 
	C659.531311,316.033081 663.525757,315.942383 667.519348,315.961182 
	C671.264587,315.978821 673.001587,314.088684 672.988831,310.418030 
	C672.982483,308.587738 673.037109,306.757355 673.037292,304.927002 
	C673.040771,270.977753 673.017456,237.028427 673.083069,203.079285 
	C673.088440,200.293549 673.693359,197.508972 674.190186,194.335602 
	C674.379944,233.049454 674.336731,272.151825 674.498779,311.253357 
	C674.518616,316.050232 672.918884,317.765137 668.155518,317.463562 
	C662.851990,317.127777 657.499329,317.161102 652.190308,317.447296 
	C647.774475,317.685303 646.476807,315.936401 646.509399,311.658295 
	C646.663025,291.526031 646.553406,271.391785 646.565674,250.820129 
z"/>
<path fill="#303030" opacity="1.000000" stroke="none" 
	d="
M480.405304,191.794403 
	C479.848999,188.197601 477.596802,187.039932 474.333008,187.043976 
	C463.516663,187.057358 452.685394,186.749557 441.893799,187.269699 
	C438.960999,187.411057 436.147949,190.036606 433.002625,191.748154 
	C432.333313,187.192825 434.771912,185.404938 439.304688,185.421890 
	C455.800018,185.483551 472.295868,185.414398 488.791138,185.485733 
	C490.454407,185.492920 492.115021,186.116974 493.883148,187.295212 
	C490.094757,190.747833 485.118866,190.308350 480.405304,191.794403 
z"/>
<path fill="#434343" opacity="1.000000" stroke="none" 
	d="
M657.980103,346.643372 
	C653.146179,346.617523 647.995911,346.434784 642.846069,346.239624 
	C638.945557,346.091797 637.014282,347.744598 637.081421,351.860840 
	C637.214478,360.018188 637.131775,368.179169 637.121277,376.338654 
	C637.117554,379.287109 637.787415,381.993622 641.357788,381.812225 
	C648.616455,381.443451 655.856995,380.718109 663.474182,380.045776 
	C661.640625,380.943085 659.489929,382.619965 657.225220,382.791504 
	C651.439270,383.229675 645.602112,382.962219 639.786438,383.047974 
	C637.054565,383.088226 635.945312,381.903656 635.969238,379.138306 
	C636.055603,369.166016 636.044373,359.192200 635.975281,349.219604 
	C635.956177,346.463013 637.199036,345.134827 639.845398,345.283508 
	C645.788574,345.617371 651.724854,346.074280 657.980103,346.643372 
z"/>
<path fill="#575757" opacity="1.000000" stroke="none" 
	d="
M513.934570,480.468597 
	C514.321716,482.944672 514.961426,485.887238 514.966675,488.830933 
	C515.018372,517.705200 514.957275,546.579651 514.951294,575.454102 
	C514.950684,578.438660 515.099548,581.423279 515.249329,584.899902 
	C515.319458,602.973755 515.319275,620.555603 514.920898,638.598633 
	C514.321350,639.052856 514.119934,639.045898 513.918518,639.038940 
	C513.858215,627.405518 513.740662,615.771973 513.747803,604.138611 
	C513.773010,563.070923 513.841003,522.003296 513.934570,480.468597 
z"/>
<path fill="#575757" opacity="1.000000" stroke="none" 
	d="
M450.987885,346.033875 
	C451.008453,356.969147 451.065247,367.904633 450.995636,378.839325 
	C450.988373,379.978149 450.232025,381.112244 449.823212,382.248535 
	C449.133881,381.740326 448.444550,381.232147 447.749146,379.914795 
	C447.690948,369.058685 447.638855,359.011749 447.586761,348.964783 
	C447.677521,348.199707 447.768250,347.434631 448.291565,346.280518 
	C449.478699,345.938934 450.233307,345.986420 450.987885,346.033875 
z"/>
<path fill="#434343" opacity="1.000000" stroke="none" 
	d="
M300.499817,465.251587 
	C302.127502,467.548004 304.158966,470.058502 305.551453,472.883942 
	C308.713257,479.299347 311.600250,485.852081 314.507874,492.389526 
	C315.216858,493.983643 315.573914,495.734222 316.040283,497.714966 
	C310.863007,487.214264 305.738251,476.411469 300.499817,465.251587 
z"/>
<path fill="#303030" opacity="1.000000" stroke="none" 
	d="
M463.300232,237.721741 
	C462.607819,237.081131 461.507446,236.051971 461.585876,235.122208 
	C462.151917,228.409332 462.807953,221.694641 463.791840,215.033142 
	C464.032043,213.406982 465.595245,211.976227 466.812073,210.234528 
	C465.861938,219.135361 464.649933,228.257278 463.300232,237.721741 
z"/>
<path fill="#434343" opacity="1.000000" stroke="none" 
	d="
M726.708496,183.251129 
	C723.785400,182.930176 721.310730,182.632248 718.466187,182.204895 
	C719.460876,182.029602 720.825256,181.983734 722.950256,182.016785 
	C725.256287,181.985916 726.801819,181.876129 728.347290,181.766327 
	C729.068054,181.516129 729.788879,181.265961 731.079529,180.923233 
	C738.059082,180.934189 744.485291,180.803925 750.870422,181.254837 
	C753.468689,181.438339 755.977661,182.884476 758.757690,184.047729 
	C758.249207,184.307755 757.510254,184.276169 756.043945,183.999023 
	C752.819641,183.547531 750.322754,183.341599 747.825867,183.135666 
	C740.936218,183.181839 734.046570,183.227997 726.708496,183.251129 
z"/>
<path fill="#434343" opacity="1.000000" stroke="none" 
	d="
M316.460510,499.381470 
	C317.813660,497.688080 319.627747,496.471924 320.610260,494.774414 
	C323.003021,490.640228 325.010040,486.282776 327.308838,481.797119 
	C325.367645,487.426880 323.380981,493.309387 321.172607,499.107422 
	C320.123688,501.861359 318.498688,503.070312 316.460510,499.381470 
z"/>
<path fill="#575757" opacity="1.000000" stroke="none" 
	d="
M179.374939,317.074371 
	C179.033417,295.557953 179.045151,273.754364 179.324585,251.478668 
	C179.592300,251.006561 180.068115,250.994308 180.068115,250.994308 
	C179.954803,272.925262 179.841507,294.856232 179.374939,317.074371 
z"/>
<path fill="#090909" opacity="1.000000" stroke="none" 
	d="
M447.376038,349.261658 
	C447.638855,359.011749 447.690948,369.058685 447.661682,379.570465 
	C447.065521,378.176727 446.075653,376.307343 446.117706,374.461487 
	C446.306854,366.156860 446.788879,357.858887 447.376038,349.261658 
z"/>
<path fill="#2F2F2F" opacity="1.000000" stroke="none" 
	d="
M806.863403,371.593445 
	C806.474915,365.269440 806.307678,358.541443 805.807312,351.838318 
	C805.666748,349.954926 804.547363,348.144562 803.516357,346.216034 
	C806.840637,343.858643 807.065063,346.848114 807.095886,349.036316 
	C807.199951,356.421753 807.026184,363.811066 806.863403,371.593445 
z"/>
<path fill="#303030" opacity="1.000000" stroke="none" 
	d="
M467.239502,209.804779 
	C468.435181,205.584839 469.351379,200.851334 471.449493,196.717758 
	C472.480682,194.686249 475.701660,193.766235 478.240601,192.404816 
	C474.848694,198.157074 471.147858,203.847748 467.239502,209.804779 
z"/>
<path fill="#2F2F2F" opacity="1.000000" stroke="none" 
	d="
M802.740112,347.235291 
	C803.264526,355.675507 803.631042,364.439362 803.970825,373.626953 
	C800.197205,365.389435 801.692139,356.458618 802.740112,347.235291 
z"/>
<path fill="#434343" opacity="1.000000" stroke="none" 
	d="
M646.820984,414.346710 
	C647.190125,414.660614 647.698486,415.443878 647.702515,416.229675 
	C647.778076,431.040710 647.794434,445.852081 647.814514,460.663361 
	C647.814697,460.816437 647.684937,461.105194 647.638916,461.100586 
	C647.361023,461.072693 647.089844,460.977753 646.701782,460.775238 
	C646.633179,445.369263 646.679260,430.093231 646.820984,414.346710 
z"/>
<path fill="#2F2F2F" opacity="1.000000" stroke="none" 
	d="
M833.227173,367.729279 
	C833.013794,361.290771 832.988831,354.546448 833.066162,347.333374 
	C833.250854,353.717560 833.333252,360.570526 833.227173,367.729279 
z"/>
<path fill="#535353" opacity="1.000000" stroke="none" 
	d="
M180.146591,250.531464 
	C180.068115,250.994308 179.592300,251.006561 179.354568,251.011871 
	C179.110977,239.625290 179.085144,228.233322 179.131027,216.841614 
	C179.135468,215.737732 179.583893,214.635620 180.009888,213.319427 
	C180.204056,225.426987 180.214554,237.747818 180.146591,250.531464 
z"/>
<path fill="#434343" opacity="1.000000" stroke="none" 
	d="
M661.045349,366.809998 
	C660.670349,365.389557 660.295410,363.969147 659.935486,362.244934 
	C659.950500,361.941193 659.823059,361.825897 659.823059,361.825928 
	C660.275024,361.849304 660.726990,361.872681 661.517273,361.923553 
	C662.582825,363.166992 663.097107,364.600739 664.076782,365.558441 
	C667.100464,368.514343 668.336548,371.781769 666.425598,376.104340 
	C665.389954,372.902832 667.368835,368.134064 661.474854,366.799438 
	C661.111755,366.760834 661.045349,366.809998 661.045349,366.809998 
z"/>
<path fill="#2F2F2F" opacity="1.000000" stroke="none" 
	d="
M824.835327,377.518066 
	C821.876221,381.852386 816.921753,382.322205 811.165894,378.379242 
	C815.446167,377.951752 819.940125,377.815643 824.835327,377.518066 
z"/>
<path fill="#2F2F2F" opacity="1.000000" stroke="none" 
	d="
M821.311951,382.881287 
	C826.325256,381.088684 830.589905,378.240570 832.498169,372.300110 
	C832.466675,378.612823 828.658142,382.375946 821.311951,382.881287 
z"/>
<path fill="#434343" opacity="1.000000" stroke="none" 
	d="
M328.138672,479.686401 
	C329.379944,475.843292 330.753571,471.679626 332.390686,467.353699 
	C331.193146,471.249542 329.732086,475.307678 328.138672,479.686401 
z"/>
<path fill="#434343" opacity="1.000000" stroke="none" 
	d="
M748.450317,317.345398 
	C758.074768,317.175201 768.169067,317.035248 778.647095,317.063782 
	C768.993835,317.280060 758.957031,317.327850 748.450317,317.345398 
z"/>
<path fill="#434343" opacity="1.000000" stroke="none" 
	d="
M232.293915,317.193909 
	C237.842575,316.742767 243.865692,316.309296 249.895981,316.032135 
	C253.666733,315.858795 257.448303,315.920868 261.708435,315.853455 
	C260.533173,316.346832 258.880798,317.284821 257.214661,317.309937 
	C249.068924,317.432739 240.919510,317.312134 232.293915,317.193909 
z"/>
<path fill="#2F2F2F" opacity="1.000000" stroke="none" 
	d="
M806.111450,378.247528 
	C808.863953,379.472961 811.626770,380.947327 814.681519,382.589539 
	C810.992493,383.477661 807.985229,382.175140 806.111450,378.247528 
z"/>
<path fill="#2F2F2F" opacity="1.000000" stroke="none" 
	d="
M728.338257,181.431290 
	C726.801819,181.876129 725.256287,181.985916 723.359680,182.050934 
	C724.228333,180.958008 725.448120,179.909821 726.895020,178.666504 
	C727.390015,179.505127 727.859680,180.300690 728.338257,181.431290 
z"/>
<path fill="#434343" opacity="1.000000" stroke="none" 
	d="
M664.904541,353.688660 
	C663.363098,351.899200 661.859558,349.829315 660.176270,347.498566 
	C661.645203,349.294556 663.293884,351.351379 664.904541,353.688660 
z"/>
<path fill="#2F2F2F" opacity="1.000000" stroke="none" 
	d="
M748.106873,183.337784 
	C750.322754,183.341599 752.819641,183.547531 755.678711,183.940079 
	C753.489929,183.931107 750.938904,183.735504 748.106873,183.337784 
z"/>
<path fill="#2F2F2F" opacity="1.000000" stroke="none" 
	d="
M829.558960,371.060303 
	C829.145386,372.463287 828.534546,374.120850 827.650391,375.972351 
	C828.038574,374.549194 828.700195,372.932037 829.558960,371.060303 
z"/>
<path fill="#2F2F2F" opacity="1.000000" stroke="none" 
	d="
M832.771057,345.927124 
	C832.256653,346.140686 831.628601,346.182770 830.686768,346.249725 
	C831.134460,346.101624 831.895935,345.928619 832.771057,345.927124 
z"/>
<path fill="#090909" opacity="1.000000" stroke="none" 
	d="
M450.844421,345.844574 
	C450.233307,345.986420 449.478699,345.938934 448.345642,345.898865 
	C448.878448,345.822601 449.789703,345.738922 450.844421,345.844574 
z"/>
<path fill="#434343" opacity="1.000000" stroke="none" 
	d="
M664.422913,358.275208 
	C664.396545,357.831848 664.507629,357.218048 664.750366,356.320190 
	C664.774841,356.725708 664.667603,357.415222 664.422913,358.275208 
z"/>
<path fill="#434343" opacity="1.000000" stroke="none" 
	d="
M415.079498,245.803940 
	C414.818054,245.711395 414.844208,245.459290 415.162201,245.212128 
	C415.235199,245.169678 415.148254,245.597015 415.079498,245.803940 
z"/>
<path fill="#434343" opacity="1.000000" stroke="none" 
	d="
M514.017212,639.236694 
	C514.119934,639.045898 514.321350,639.052856 514.825745,639.063477 
	C514.791199,639.189575 514.453552,639.312012 514.017212,639.236694 
z"/>
<path fill="#434343" opacity="1.000000" stroke="none" 
	d="
M460.955139,437.994385 
	C460.955231,430.700653 460.955231,423.905487 460.955231,417.110352 
	C461.190521,417.110962 461.425842,417.111542 461.661133,417.112152 
	C461.661133,428.682861 461.661133,440.253540 461.661133,451.824219 
	C461.425751,451.837921 461.190399,451.851593 460.955017,451.865265 
	C460.955017,447.407867 460.955017,442.950439 460.955139,437.994385 
z"/>
<path fill="#434343" opacity="1.000000" stroke="none" 
	d="
M460.771362,265.406555 
	C461.107849,266.525269 461.797333,268.116608 461.806702,269.711945 
	C461.887390,283.451752 461.872742,297.192474 461.799622,310.932434 
	C461.791931,312.376648 461.223816,313.817871 460.711761,315.629852 
	C460.608215,299.293152 460.708649,282.587097 460.771362,265.406555 
z"/>
<path fill="#434343" opacity="1.000000" stroke="none" 
	d="
M458.670990,315.987549 
	C451.568237,316.072449 443.980743,316.162292 435.954651,316.124939 
	C443.072784,315.995941 450.629486,315.994202 458.670990,315.987549 
z"/>
<path fill="#2F2F2F" opacity="1.000000" stroke="none" 
	d="
M177.156601,498.543213 
	C177.037231,498.596008 176.937347,498.594238 176.837479,498.592438 
	C176.950363,498.557861 177.063232,498.523254 177.156601,498.543213 
z"/>
<path fill="#040404" opacity="1.000000" stroke="none" 
	d="
M508.285278,375.251099 
	C502.273102,380.666260 495.277618,380.957916 488.228516,380.167145 
	C486.754791,380.001801 484.430298,377.704987 484.365326,376.303802 
	C483.995422,368.324890 484.076385,360.316376 484.313690,352.327087 
	C484.351227,351.064056 486.045013,348.730164 486.834900,348.787720 
	C492.863190,349.226837 499.516571,348.743713 504.717072,351.205627 
	C513.988831,355.594879 515.174377,366.492249 508.285278,375.251099 
z"/>
<path fill="#090909" opacity="1.000000" stroke="none" 
	d="
M231.991364,368.556885 
	C230.433670,367.613586 228.378891,366.749207 228.305771,365.741150 
	C227.958435,360.952759 227.995178,356.116119 228.275970,351.318939 
	C228.335922,350.294922 229.941879,348.574799 230.902191,348.527496 
	C234.858002,348.332672 238.906616,348.253540 242.794128,348.897949 
	C247.436096,349.667389 250.650055,354.145691 250.556015,358.595306 
	C250.463303,362.983093 247.273346,366.950623 242.309937,367.952454 
	C239.098419,368.600677 235.714233,368.393494 231.991364,368.556885 
z"/>
<path fill="#040404" opacity="1.000000" stroke="none" 
	d="
M184.781281,379.358124 
	C176.451843,381.892639 168.184464,378.879486 164.585892,372.291290 
	C160.916183,365.572876 162.418076,357.152344 168.129318,352.424805 
	C174.910675,346.811462 182.696365,346.686981 189.485138,352.083313 
	C198.396393,359.166779 196.215652,372.843079 184.781281,379.358124 
z"/>
<path fill="#090909" opacity="1.000000" stroke="none" 
	d="
M397.682068,368.504883 
	C396.319458,367.109161 394.695160,365.821411 394.560059,364.392792 
	C394.185455,360.432068 394.189819,356.390106 394.560516,352.428528 
	C394.693054,351.012573 396.228424,348.656281 397.254517,348.583801 
	C401.367126,348.293152 405.634338,348.222687 409.647675,349.038452 
	C413.811127,349.884735 416.579651,352.786987 416.932465,357.445984 
	C417.294708,362.229065 415.397217,365.907990 410.850555,367.113525 
	C406.761047,368.197845 402.362305,368.115997 397.682068,368.504883 
z"/>
<path fill="#090909" opacity="1.000000" stroke="none" 
	d="
M340.240631,368.820282 
	C342.659180,362.427490 345.173309,356.404572 347.687469,350.381622 
	C348.221619,350.382080 348.755768,350.382507 349.289948,350.382935 
	C351.898285,356.185364 354.566559,361.962830 357.010193,367.833801 
	C357.223969,368.347382 355.936401,370.220245 355.390961,370.200867 
	C350.367096,370.022369 345.353088,369.565796 340.240631,368.820282 
z"/>
<path fill="#090909" opacity="1.000000" stroke="none" 
	d="
M754.634155,360.593506 
	C756.339905,357.049805 757.889709,353.848480 760.179565,349.118469 
	C763.594482,356.684082 766.369263,362.831543 769.552307,369.883453 
	C762.867188,369.883453 757.272766,369.883453 750.856140,369.883453 
	C752.281128,366.363190 753.379578,363.649506 754.634155,360.593506 
z"/>
<path fill="#090909" opacity="1.000000" stroke="none" 
	d="
M661.093567,366.794617 
	C666.129028,373.133911 663.869080,379.231232 655.930420,380.455902 
	C653.815063,380.782227 651.622803,380.652191 649.465698,380.658356 
	C639.704407,380.686279 637.302612,377.639038 639.808655,368.069672 
	C640.096252,366.971558 641.690735,365.406036 642.650757,365.425964 
	C648.572327,365.548859 654.485718,366.064575 660.723633,366.629822 
	C661.045349,366.809998 661.111755,366.760834 661.093567,366.794617 
z"/>
<path fill="#090909" opacity="1.000000" stroke="none" 
	d="
M659.892822,361.876343 
	C654.718079,362.220490 649.601685,362.636139 644.483948,363.036072 
	C641.187256,363.293701 639.721924,361.887909 639.513672,358.449402 
	C638.906189,348.420715 639.240417,347.949585 649.240967,348.061340 
	C650.406555,348.074371 651.575928,348.070190 652.736511,348.162567 
	C661.107239,348.828796 663.700928,353.540161 659.849182,361.461853 
	C659.823059,361.825897 659.950500,361.941193 659.892822,361.876343 
z"/>
</svg>